<?xml version="1.0" encoding="utf-8"?>
<svg viewBox="0 0 36 36" width="36" height="36" xmlns="http://www.w3.org/2000/svg">
    <path d="M36 27c0 2.209-1.791 4-4 4H4c-2.209 0-4-1.791-4-4V9c0-2.209 1.791-4 4-4h28c2.209 0 4 1.791 4 4v18z" style="fill: rgb(0, 156, 222);"/>
    <g>
        <path d="M 13.163 20.44 C 13.129 20.418 12.561 19.907 12.42 19.725 C 12.282 19.543 12.016 19.495 11.877 19.422 C 11.737 19.349 10.813 19.045 10.591 19.203 C 10.372 19.36 10.07 19.457 9.953 19.203 C 9.838 18.947 9.78 18.911 9.618 18.875 C 9.456 18.839 9.537 18.645 9.526 18.475 C 9.513 18.304 9.421 18.123 9.305 18.245 C 9.189 18.367 8.795 18.682 8.738 18.522 C 8.68 18.366 8.401 17.71 8.819 17.588 C 9.235 17.467 9.583 17.539 9.688 17.648 C 9.792 17.757 9.872 18.061 10.001 18.024 C 10.129 17.987 10.059 17.756 10.105 17.563 C 10.151 17.371 10.454 17.115 10.591 16.848 C 10.73 16.58 10.753 16.423 10.926 16.349 C 11.102 16.277 11.194 16.18 11.356 16.058 C 11.519 15.936 11.772 15.829 11.867 15.766 C 11.96 15.704 12.376 15.499 12.514 15.536 C 12.653 15.573 12.745 15.523 12.63 15.317 C 12.514 15.111 12.364 14.492 12.144 14.213 C 11.924 13.934 11.9 13.859 11.796 13.594 C 11.692 13.326 11.575 13.096 11.494 13.278 C 11.413 13.461 11.24 13.704 11.147 13.472 C 11.055 13.242 11.066 13.253 10.95 13.144 C 10.835 13.036 10.741 13.01 10.58 12.962 C 10.418 12.913 10.256 12.974 10.267 13.132 C 10.278 13.291 10.115 13.571 10.221 13.777 C 10.325 13.984 10.418 14.203 10.278 14.275 C 10.14 14.347 10.278 14.786 10.14 14.772 C 10.001 14.761 9.932 14.786 9.932 14.626 C 9.932 14.469 10.001 14.226 9.745 14.226 C 9.491 14.226 9.34 14.093 9.155 13.959 C 8.969 13.826 8.819 13.897 8.865 13.595 C 8.911 13.291 8.843 13.182 9.05 13.012 C 9.259 12.843 9.306 12.745 9.456 12.818 C 9.607 12.891 9.71 12.891 9.805 12.806 C 9.897 12.721 10.07 12.757 10.07 12.648 C 10.07 12.54 9.873 12.54 9.897 12.358 C 9.919 12.174 10.013 12.272 10.047 11.968 C 10.081 11.665 9.827 11.204 9.572 11.264 C 9.316 11.326 8.924 11.677 8.843 11.519 C 8.761 11.361 8.599 11.434 8.286 11.543 C 7.973 11.652 6.676 11.434 6.584 11.324 C 6.584 11.324 6.363 11.167 6.247 11.252 C 6.132 11.337 5.668 11.3 5.529 11.276 C 5.389 11.252 5.262 11.433 5.09 11.374 C 4.914 11.312 4.301 11.191 4.163 11.094 C 4.022 10.997 3.813 10.997 3.723 10.949 C 3.63 10.899 3.293 10.876 3.225 10.972 C 3.156 11.069 2.901 11.24 2.773 11.36 C 2.646 11.482 2.497 11.459 2.623 11.714 C 2.75 11.968 2.299 12.127 2.414 12.405 C 2.529 12.682 2.391 13.435 2.854 13.582 C 3.318 13.728 3.7 13.812 3.966 13.595 C 4.234 13.376 4.639 13.376 4.766 13.619 C 4.893 13.861 4.963 14.225 5.379 14.431 C 5.795 14.639 6.155 15.234 6.132 15.501 C 6.11 15.768 6.145 16.653 6.571 17.164 C 7.001 17.674 7.441 18.597 7.474 18.378 C 7.509 18.159 7.509 17.94 7.603 18.098 C 7.694 18.257 7.938 18.743 8.332 18.827 C 8.727 18.912 8.924 18.935 9.073 19.083 C 9.223 19.228 9.352 19.312 9.513 19.386 C 9.675 19.459 10.069 19.678 10.15 19.824 C 10.232 19.97 10.197 20.164 10.115 20.383 C 10.035 20.602 9.942 20.82 10.057 21.027 C 10.174 21.233 10.417 21.829 10.615 21.962 C 10.812 22.096 11.007 22.314 10.961 22.618 C 10.915 22.919 10.695 24.218 10.718 24.51 C 10.742 24.8 10.453 25.759 10.684 26.148 C 10.915 26.537 11.311 26.659 11.484 26.608 C 11.657 26.561 11.519 26.548 11.437 26.366 C 11.356 26.183 11.367 25.953 11.46 25.784 C 11.554 25.613 11.554 25.516 11.507 25.322 C 11.46 25.129 11.484 25.018 11.599 24.874 C 11.716 24.728 12.202 24.34 12.353 24.17 C 12.502 24 13.454 22.834 13.581 22.736 C 13.708 22.639 13.997 22.409 14.091 22.046 C 14.184 21.682 14.519 20.966 14.288 20.782 C 14.055 20.599 13.198 20.465 13.163 20.44 Z" style="fill: rgb(255, 255, 255);"/>
        <path d="M 15.479 10.196 C 15.545 10.068 15.705 9.745 15.791 9.568 L 12.121 9.568 C 12.165 9.763 12.324 10.486 12.294 10.779 C 12.259 11.12 12.364 10.999 12.456 11.133 C 12.549 11.266 12.526 11.473 12.468 11.63 C 12.409 11.788 12.375 12.14 12.562 12.553 C 12.746 12.966 12.966 13.487 13.151 13.512 C 13.338 13.536 13.291 13.803 13.419 13.706 C 13.546 13.607 13.568 13.391 13.674 13.075 C 13.778 12.76 13.778 12.528 14.045 12.371 C 14.312 12.213 15.052 11.704 15.214 11.52 C 15.377 11.338 15.562 11.265 15.504 10.951 C 15.444 10.634 15.387 10.379 15.479 10.196 Z" style="fill: rgb(255, 255, 255);"/>
        <path d="M 33.548 11.629 C 33.409 11.532 32.576 10.865 32.216 10.95 C 31.859 11.035 31.22 10.755 31.116 10.694 C 31.012 10.633 30.156 10.371 29.704 10.354 C 29.479 10.346 28.534 10.136 28.139 9.967 C 27.745 9.797 27.41 8.96 26.658 9.093 C 26.561 9.111 25.651 9.239 25.419 9.446 C 25.189 9.653 25.083 9.894 24.956 9.943 C 24.829 9.992 24.458 9.967 24.458 10.15 C 24.458 10.332 24.586 10.891 24.436 10.781 C 24.285 10.672 24.134 10.417 24.066 10.611 C 23.997 10.806 23.878 10.915 23.81 10.841 C 23.742 10.769 23.391 10.841 23.346 10.963 C 23.3 11.085 22.848 11.362 22.653 11.401 C 22.456 11.437 22.374 11.535 22.27 11.584 C 22.166 11.632 21.377 11.997 21.228 11.862 C 21.077 11.729 21.031 11.814 20.938 11.839 C 20.938 11.839 20.66 11.79 20.487 11.571 C 20.312 11.353 20.278 11.425 20.081 11.219 C 19.885 11.013 19.838 10.807 19.641 10.892 C 19.446 10.976 18.612 11.838 18.287 12.226 C 17.964 12.616 17.384 13.015 17.673 13.294 C 17.964 13.573 18.113 13.537 18.149 13.693 C 18.185 13.85 18.219 14.021 18.265 14.083 C 18.311 14.144 18.589 14.361 18.728 14.07 C 18.869 13.778 18.89 13.573 19.053 13.622 C 19.215 13.67 19.249 13.78 19.167 13.998 C 19.086 14.217 19.029 14.556 18.751 14.544 C 18.473 14.532 18.173 14.361 18.078 14.398 C 17.986 14.434 17.93 14.519 17.824 14.604 C 17.72 14.689 17.395 15.089 17.175 15.15 C 16.956 15.212 16.69 15.162 16.84 15.343 C 16.99 15.524 17.21 15.926 17.002 15.914 C 16.794 15.901 16.446 15.866 16.423 16.072 C 16.4 16.277 16.308 16.399 16.354 16.545 C 16.4 16.691 16.551 16.97 16.735 16.873 C 16.923 16.774 17.281 16.679 17.373 16.46 C 17.466 16.241 17.571 16 17.802 16.011 C 18.033 16.023 18.59 16.327 18.555 16.436 C 18.52 16.545 18.405 16.8 18.544 16.715 C 18.682 16.63 18.798 16.533 18.879 16.497 C 18.96 16.46 19.066 16.619 19.099 16.679 C 19.134 16.741 19.366 16.861 19.412 16.666 C 19.459 16.472 19.505 16.619 19.642 16.679 C 19.783 16.741 20.199 16.788 20.255 16.837 C 20.315 16.885 20.442 17.031 20.279 17.225 C 20.117 17.419 19.93 17.494 19.665 17.347 C 19.398 17.201 19.108 17.469 18.809 17.323 C 18.507 17.177 18.646 16.971 18.287 16.826 C 17.93 16.68 17.118 16.861 16.862 16.934 C 16.607 17.006 16.596 17.032 16.492 17.152 C 16.388 17.274 15.705 18.062 15.705 18.511 C 15.705 18.96 15.959 20.175 16.781 20.053 C 17.604 19.931 18.102 20.004 18.01 20.246 C 17.916 20.49 17.964 20.55 18.114 20.829 C 18.264 21.107 18.613 22.965 18.67 23.267 C 18.729 23.572 18.625 23.959 19.007 23.898 C 19.39 23.838 19.795 23.742 19.956 23.389 C 20.119 23.037 20.143 22.637 20.351 22.431 C 20.56 22.224 20.815 22.224 20.837 21.933 C 20.859 21.641 20.779 20.951 20.918 20.791 C 21.057 20.634 21.705 19.905 21.774 19.614 C 21.844 19.323 21.936 19.25 21.67 19.25 C 21.404 19.25 20.952 19.214 20.823 18.971 C 20.697 18.728 20.395 18.267 20.395 18.159 C 20.395 18.05 20.581 18.061 20.672 18.292 C 20.765 18.521 21.088 19.215 21.459 19.067 C 21.83 18.921 22.352 18.753 22.363 18.521 C 22.374 18.292 22.201 18.024 22.014 18.038 C 21.828 18.05 21.632 17.916 21.632 17.783 C 21.632 17.649 21.666 17.699 21.886 17.783 C 22.108 17.868 22.176 18.012 22.512 18.038 C 22.848 18.061 23.231 18.389 23.415 18.536 C 23.601 18.682 23.924 19.677 24.006 19.773 C 24.086 19.872 24.181 19.872 24.261 19.676 C 24.343 19.481 24.69 18.864 24.887 18.692 C 25.084 18.522 25.095 18.293 25.21 18.438 C 25.326 18.584 25.824 18.948 25.859 19.167 C 25.894 19.385 25.836 19.858 25.94 19.713 C 26.044 19.567 26.126 19.264 26.216 19.398 C 26.31 19.533 26.31 19.739 26.529 19.581 C 26.75 19.424 27.132 19.362 26.924 19.022 C 26.716 18.682 26.855 18.476 26.984 18.464 C 27.111 18.451 27.98 18.294 28.003 17.819 C 28.026 17.346 27.701 17.091 27.855 16.848 C 28.003 16.605 28.223 16.387 28.271 16.533 C 28.317 16.679 28.155 17.151 28.363 17.079 C 28.572 17.006 28.815 17.006 28.815 16.859 C 28.815 16.713 28.768 16.348 28.862 16.253 C 28.955 16.156 29.636 15.513 29.718 15.258 C 29.799 15.003 29.95 14.785 29.822 14.591 C 29.694 14.397 29.475 14.457 29.648 14.215 C 29.822 13.972 30.112 13.748 30.332 13.729 C 31.035 13.668 30.837 14.538 30.848 14.731 C 30.862 14.925 30.862 15.412 30.965 15.169 C 31.069 14.926 31.19 14.628 31.399 14.422 C 31.608 14.216 31.722 14.082 31.736 13.9 C 31.748 13.718 31.757 13.658 31.956 13.56 C 32.153 13.463 33.021 13.123 33.102 12.893 C 33.182 12.664 32.998 12.455 33.206 12.469 C 33.414 12.48 33.611 12.711 33.716 12.59 C 33.821 12.469 34.052 12.251 34.04 12.129 C 34.026 12.006 33.689 11.726 33.548 11.629 Z" style="fill: rgb(255, 255, 255);"/>
        <path d="M 29.809 15.707 C 29.739 15.866 29.705 15.89 29.601 16.218 C 29.495 16.545 29.53 16.46 29.425 16.666 C 29.321 16.873 29.149 16.895 28.974 17.031 C 28.799 17.165 28.753 17.43 28.753 17.43 C 28.603 17.636 29.367 17.138 29.633 16.981 C 29.9 16.824 29.831 16.641 29.854 16.386 C 29.877 16.131 29.949 16.094 30.062 15.985 C 30.177 15.877 30.085 15.658 30.03 15.501 C 29.969 15.342 29.877 15.55 29.809 15.707 Z" style="fill: rgb(255, 255, 255);"/>
        <path d="M 27.434 21.217 C 27.514 21.156 27.456 21.023 27.583 21.047 C 27.711 21.07 27.826 21.145 27.979 21.06 C 28.128 20.974 28.256 21.01 28.233 20.866 C 28.211 20.72 28.233 20.526 28.199 20.406 C 28.164 20.284 27.956 20.247 27.804 20.382 C 27.655 20.516 27.447 20.722 27.447 20.648 C 27.447 20.577 27.538 20.382 27.492 20.26 C 27.447 20.139 27.514 20.03 27.284 20.127 C 27.052 20.224 26.925 20.2 26.844 20.334 C 26.763 20.468 26.67 20.698 26.532 20.552 C 26.392 20.407 25.987 20.104 25.987 20.104 C 25.954 20.067 25.491 19.69 25.653 19.946 C 25.814 20.202 26.057 20.638 26.174 20.796 C 26.288 20.954 26.416 21.136 26.555 21.051 C 26.695 20.966 26.718 20.942 26.904 21.051 C 27.085 21.157 27.353 21.278 27.434 21.217 Z" style="fill: rgb(255, 255, 255);"/>
        <path d="M 30.273 20.878 C 30.051 20.781 30.144 20.695 29.877 20.648 C 29.61 20.601 29.391 20.648 29.32 20.6 C 29.25 20.551 28.904 20.43 28.95 20.6 C 28.997 20.771 29.309 20.818 29.389 20.867 C 29.47 20.916 29.274 21.025 29.423 21.109 C 29.573 21.193 29.678 21.352 29.875 21.303 C 30.072 21.254 30.142 21.364 30.302 21.388 C 30.465 21.412 30.627 21.364 30.56 21.29 C 30.49 21.218 30.445 21.12 30.456 21.036 C 30.467 20.951 30.491 20.974 30.273 20.878 Z" style="fill: rgb(255, 255, 255);"/>
        <path d="M 30.156 21.958 C 30.075 21.715 29.878 21.267 29.833 21.484 C 29.786 21.703 29.473 21.859 29.356 21.847 C 29.25 21.836 29.31 21.726 29.31 21.628 C 29.31 21.531 29.249 21.434 28.985 21.507 C 28.717 21.58 28.662 21.835 28.59 21.811 C 28.522 21.788 28.335 21.738 28.22 21.873 C 28.105 22.007 27.999 22.261 27.862 22.31 C 27.721 22.359 27.258 22.419 27.258 22.615 C 27.258 22.808 27.375 23.099 27.363 23.258 C 27.351 23.417 27.139 23.779 27.421 23.889 C 27.583 23.953 27.698 23.962 27.886 23.866 C 28.071 23.768 28.869 23.513 28.974 23.597 C 29.078 23.682 29.247 23.882 29.322 23.925 C 29.469 24.012 29.509 24.216 29.706 24.264 C 29.9 24.313 30.053 24.337 30.133 24.337 C 30.215 24.337 30.503 24.24 30.573 24.069 C 30.642 23.898 30.77 23.499 30.828 23.304 C 30.888 23.11 30.943 22.892 30.77 22.721 C 30.596 22.553 30.237 22.201 30.156 21.958 Z" style="fill: rgb(255, 255, 255);"/>
    </g>
</svg>